<svg xmlns="http://www.w3.org/2000/svg" id="Layer_2" data-name="Layer 2" viewBox="0 0 356.35 250.25" width="356.35" height="250.25"><metadata><rdf:RDF xmlns:rdf="http://www.w3.org/1999/02/22-rdf-syntax-ns#" xmlns:dc="http://purl.org/dc/elements/1.1/"><rdf:Description><dc:creator>RealFaviconGenerator</dc:creator><dc:source>https://realfavicongenerator.net</dc:source></rdf:Description></rdf:RDF></metadata><defs>
    <style>
      .cls-1 {
        fill: #fff;
      }

      .cls-2 {
        fill: #643791;
      }
    </style>
  </defs><g id="Layer_1-2" data-name="Layer 1">
    <path class="cls-2" d="M356.09,225.86l-39.83-103.98,34.38-102.24c.9-2.67-1.27-5.37-4.07-5.07l-166.88,17.52V5.52c0-3.28-2.84-5.83-6.1-5.49L4.94,17.87c-2.81.3-4.94,2.67-4.94,5.49v207.84c0,3.28,2.84,5.83,6.1,5.49l173.59-18.37v26.4c0,3.3,2.87,5.86,6.15,5.48l167.08-19.14c2.51-.29,4.07-2.86,3.17-5.22Z"></path>
    <path class="cls-1" d="M176.43,116.68l-.33-7.73-74.74,3.09.77,20.53,49.46-1.99c-2.65,26.05-19.43,38.31-42.17,39.3-28.59,1.1-49.57-16.45-51-52.55-1.44-36.1,17.55-55.31,46.59-56.52,21.31-.77,37.42,9.49,43.6,27.71l22.96-7.62c-10.16-27.49-36.21-42.17-67.23-40.85-41.73,1.66-71.64,30.58-69.66,78.16,1.88,47.47,34.44,74.07,75.95,72.42,42.06-1.77,67.56-30.47,65.79-73.96Z"></path>
    <path class="cls-1" d="M294.79,129.43c0,31.79-22.56,52.2-52.39,52.2s-52.6-20.41-52.6-52.2,22.57-52.2,52.6-52.2,52.39,20.21,52.39,52.2ZM212.16,129.43c0,20.81,12.76,33.16,30.23,33.16s30.22-12.35,30.22-33.16-12.95-33.37-30.22-33.37-30.23,12.37-30.23,33.37Z"></path>
  </g></svg>