<?xml version="1.0" encoding="UTF-8"?>
<svg id="Layer_2" data-name="Layer 2" xmlns="http://www.w3.org/2000/svg" viewBox="0 0 1321.45 250.26">
  <defs>
    
  </defs>
  <g id="Layer_1-2" data-name="Layer 1">
    <g>
      <path class="cls-1" d="M878.31,42.35h-59.78v146.14h23.24v-55.09h36.54c26.38,0,45.91-16.02,45.91-45.52s-19.53-45.53-45.91-45.53ZM875.38,112.69h-33.8v-49.82h33.8c13.87,0,25.01,8.2,25.01,25.01s-11.14,24.81-25.01,24.81Z"></path>
      <path class="cls-1" d="M997.59,88.27v57.24c0,13.09-8.01,24.42-21.69,24.42s-20.31-8.79-20.31-23.25v-58.41h-21.89v61.74c0,24.22,14.07,40.44,36.73,40.44,15.63,0,24.62-7.62,28.33-15.05v13.09h20.71v-100.22h-21.88Z"></path>
      <path class="cls-1" d="M1089.51,86.51c-15.05,0-26.38,6.06-31.85,13.87v-57.94h-21.88v146.05h20.71v-13.87c5.47,9.18,17.39,15.83,33.02,15.83,27.93,0,48.25-20.13,48.25-51.97s-20.32-51.97-48.25-51.97ZM1085.99,171.5c-16.41,0-28.33-10.55-28.33-30.48v-5.28c0-19.73,11.92-30.48,28.33-30.48s29.5,11.92,29.5,33.22-12.5,33.02-29.5,33.02Z"></path>
      <path class="cls-1" d="M1150.84,42.44v146.05h21.88V42.44h-21.88Z"></path>
      <path class="cls-1" d="M1190.9,88.27v100.22h21.89v-100.22h-21.89ZM1201.85,39.81c-7.43,0-13.68,6.06-13.68,13.68s6.06,13.68,13.68,13.68,13.87-6.06,13.87-13.68-6.25-13.68-13.87-13.68Z"></path>
      <path class="cls-1" d="M1299.96,151.57c-1.95,12.31-11.14,19.93-24.81,19.93-16.02,0-27.94-11.92-27.94-33.02s11.72-33.22,27.94-33.22c13.28,0,23.05,8.02,24.62,21.1l21.49-1.95c-3.32-23.64-22.08-37.9-46.11-37.9-28.92,0-50.21,18.95-50.21,51.97s21.49,51.97,50.21,51.97c24.42,0,42.39-14.07,46.3-36.93l-21.49-1.95Z"></path>
    </g>
    <g>
      <path class="cls-1" d="M718.75,129.44c0,19.23-11.75,32.16-29.22,32.16s-29.23-12.63-29.23-32.16,11.47-32.37,29.23-32.37,29.22,13.01,29.22,32.37Z"></path>
      <path class="cls-1" d="M803.22,225.86l-39.83-103.98,34.39-102.24c.89-2.66-1.27-5.37-4.07-5.07l-166.88,17.52V5.52c0-3.28-2.84-5.83-6.1-5.49l-168.66,17.85c-2.8.29-4.93,2.66-4.93,5.49v207.84c0,3.28,2.84,5.83,6.1,5.49l173.58-18.37v26.4c0,3.3,2.87,5.86,6.15,5.49l167.08-19.14c2.51-.29,4.08-2.86,3.17-5.22ZM607.85,169.98c-11.83,13.29-29.13,20.79-50.04,21.66-1.23.05-2.46.08-3.68.08-20.29,0-37.96-6.66-51.07-19.25-13.67-13.11-21.36-31.86-22.24-54.2-.96-22.99,5.44-42.64,18.51-56.82,12.72-13.79,30.73-21.53,52.11-22.38,1.29-.05,2.6-.08,3.88-.08,30.66,0,54.7,15.54,64.33,41.58l.35.97-24.88,8.25-.32-.94c-5.84-17.2-20.58-27.07-40.43-27.07-.72,0-1.46.02-2.19.04-14.36.6-26.12,5.73-34,14.84-8.4,9.7-12.31,23.37-11.63,40.65,1.29,32.33,19.04,51.63,47.49,51.63.82,0,1.65-.02,2.48-.05,23.77-1.04,38.32-14.25,41.08-37.25l-49.29,1.98-.85-22.53,76.73-3.18.37,8.73c.88,21.61-4.9,40.05-16.71,53.34ZM689.53,182.64c-31.56,0-53.6-21.88-53.6-53.2s22.04-53.2,53.6-53.2,53.39,21.87,53.39,53.2-21.95,53.2-53.39,53.2Z"></path>
    </g>
    <g>
      <path class="cls-1" d="M73.46,42.35v97.89c0,19.53-8.99,29.5-24.62,29.5s-24.61-10.94-25.59-30.09l-23.25,3.71c1.56,29.5,19.93,47.09,48.65,47.09s48.06-18.56,48.06-50.8V42.35h-23.25Z"></path>
      <path class="cls-1" d="M163.2,86.51c-29.9,0-52.36,20.12-52.36,51.97s22.46,51.97,52.36,51.97,52.16-20.32,52.16-51.97-22.47-51.97-52.16-51.97ZM163.2,171.5c-17.39,0-30.09-12.31-30.09-33.02s12.7-33.22,30.09-33.22,30.08,12.31,30.08,33.22-12.89,33.02-30.08,33.02Z"></path>
      <path class="cls-1" d="M282.21,86.51c-15.04,0-26.37,6.06-31.84,13.87v-57.94h-21.88v146.05h20.71v-13.87c5.47,9.18,17.38,15.83,33.01,15.83,27.94,0,48.26-20.13,48.26-51.97s-20.32-51.97-48.26-51.97ZM278.7,171.5c-16.41,0-28.33-10.55-28.33-30.48v-5.28c0-19.73,11.92-30.48,28.33-30.48s29.5,11.92,29.5,33.22-12.51,33.02-29.5,33.02Z"></path>
      <path class="cls-1" d="M384.4,128.9c-13.29-3.12-21.89-3.9-21.89-12.5,0-6.84,5.28-11.14,15.63-11.14,11.14,0,16.41,5.87,17.2,14.27l21.88-1.17c-1.96-17.78-14.65-31.85-38.49-31.85s-38.1,12.31-38.1,30.28c0,20.13,14.46,24.42,34.78,29.31,16.41,3.91,21.68,5.86,21.68,14.06,0,7.43-7.03,11.34-16.99,11.34-11.92,0-18.37-5.28-19.54-14.46l-21.88,1.37c2.34,19.92,17,32.04,41.03,32.04s39.27-11.92,39.27-32.04c0-17.98-13.87-24.23-34.58-29.51Z"></path>
    </g>
  </g>
</svg>